<svg xmlns="http://www.w3.org/2000/svg" xmlns:xlink="http://www.w3.org/1999/xlink" version="1.1" x="0px" y="0px" viewBox="0 0 256 256" enable-background="new 0 0 256 256" xml:space="preserve">
<metadata fill="#ffffff"> Svg Vector Icons : http://www.onlinewebfonts.com/icon </metadata>
<g><g><g><path fill="#ffffff" d="M123.1,50.1c-12.8,2.5-23.6,4.7-24.1,5c-0.5,0.3-11.7,12.9-24.7,28C61.1,98.3,49.5,111.7,48.4,113l-2,2.2l-7.6-1.4c-4.2-0.8-8.2-1.4-8.8-1.4c-2.9,0-2.6-1.1-11.9,46.4c-9.1,46.6-9,46-6.7,47.2c0.6,0.3,29.1,1,81.4,2c44.2,0.8,96.2,1.8,115.5,2.1c37.8,0.7,36.5,0.8,37.7-1.6c0.4-0.8-0.3-6.4-3.1-24.7c-2-13-4.3-27.9-5-32.8c-1.2-8-1.5-9.2-2.5-10.1c-1-0.8-2.7-1.1-11-2.1c-5.6-0.6-9.9-1.3-9.9-1.6c0-0.2,2-8.6,4.3-18.4c2.4-9.9,4.3-18.4,4.3-18.9c0-0.5-5.2-8.6-11.6-17.9l-11.6-17l-26.2-9.6c-14.5-5.4-26.5-9.6-26.8-9.6C146.5,45.6,135.9,47.6,123.1,50.1z M171.3,62.3l23.6,8.7l10.2,14.9l10.2,14.9l-4.3,17.8c-2.3,9.8-4.3,17.9-4.4,18c0,0-10.5-1.1-23.3-2.7c-18.3-2.2-23.5-2.6-24.5-2.2c-0.7,0.3-6.6,5-13.1,10.6c-6.5,5.5-12.4,10.5-13.1,11.1l-1.3,1.1l-4.2-10.3c-2.3-5.6-4.6-10.6-5.1-11c-0.5-0.4-8-2.9-16.8-5.5c-14.7-4.3-17.2-5-32.2-7.6c-8.9-1.6-16.6-3-17.1-3.2c-0.6-0.3,4.3-6.1,22.6-27.3c12.9-14.9,23.6-27.2,23.7-27.4c0.6-0.6,43.1-8.9,44.2-8.6C147.3,53.5,158.3,57.5,171.3,62.3z M60.6,125.3c25.9,4.6,26.8,4.8,41.4,9.1l14.9,4.4l4.1,9.8c2.2,5.4,8,19.4,12.9,31.2l8.8,21.4h-2.4c-6.3,0-121.9-2.1-122.1-2.2c-0.2-0.2,14.8-77.5,15.1-78.2c0.1-0.2,0.4-0.3,0.6-0.3C34,120.5,46,122.6,60.6,125.3z M202.6,143.7c14.7,1.7,26.8,3.2,26.8,3.2c0.2,0.2,8.7,55.9,8.6,56.1c-0.1,0-12-0.1-26.6-0.4c-14.6-0.2-34.2-0.6-43.6-0.8l-17.1-0.3l-7.9-19.1c-4.3-10.5-8-19.5-8.1-20.1c-0.2-0.8,2.5-3.2,13.2-12.2l13.4-11.3l7.3,0.9C172.6,140.2,187.9,141.9,202.6,143.7z"/><path fill="#ffffff" d="M174.9,79.7c-0.7,0.6-1.2,1.7-1.2,2.3c0,1.2,15.2,24.7,16.9,26c0.4,0.3,1.4,0.7,2.3,0.7c1.8,0,3.8-1.9,3.8-3.6c0-1.2-16.1-25.5-17.2-26.2C178,78.1,176.1,78.4,174.9,79.7z"/><path fill="#ffffff" d="M209.8,165.6c-1.6,1.5-1.5,2.5,0.5,10.2c1.8,7,2.8,8.6,5.3,8.6c1.5,0,3.5-2,3.5-3.5c0-0.6-0.8-4.1-1.7-7.8c-1.3-5.2-2-6.9-2.9-7.7C213,164.1,211.2,164.2,209.8,165.6z"/></g></g></g>
</svg>