<svg xmlns="http://www.w3.org/2000/svg" xmlns:xlink="http://www.w3.org/1999/xlink" version="1.1" width="256" height="256" viewBox="0 0 256 256" xml:space="preserve">

<defs>
</defs>
<g style="stroke: none; stroke-width: 0; stroke-dasharray: none; stroke-linecap: butt; stroke-linejoin: miter; stroke-miterlimit: 10; fill: none; fill-rule: nonzero; opacity: 1;" transform="translate(1.4065934065934016 1.4065934065934016) scale(2.81 2.81)" >
	<path d="M 13.558 65.467 c -1.812 0 -3.516 -0.706 -4.796 -1.987 c -1.281 -1.28 -1.987 -2.984 -1.987 -4.796 c 0 -1.812 0.706 -3.516 1.987 -4.797 c 1.281 -1.281 2.984 -1.987 4.796 -1.987 s 3.516 0.706 4.796 1.987 c 1.281 1.281 1.987 2.984 1.987 4.797 c 0 1.812 -0.706 3.516 -1.987 4.796 C 17.073 64.761 15.37 65.467 13.558 65.467 z M 13.558 53.899 c -1.278 0 -2.479 0.498 -3.382 1.401 c -0.903 0.903 -1.401 2.104 -1.401 3.383 c 0 1.277 0.498 2.479 1.401 3.382 c 0.903 0.903 2.104 1.401 3.382 1.401 s 2.479 -0.498 3.382 -1.401 c 0.903 -0.903 1.401 -2.104 1.401 -3.382 c 0 -1.278 -0.498 -2.479 -1.401 -3.383 C 16.037 54.397 14.836 53.899 13.558 53.899 z" style="stroke: none; stroke-width: 1; stroke-dasharray: none; stroke-linecap: butt; stroke-linejoin: miter; stroke-miterlimit: 10; fill: rgb(0,0,0); fill-rule: nonzero; opacity: 1;" transform=" matrix(1 0 0 1 0 0) " stroke-linecap="round" />
	<path d="M 88.155 1.844 C 85.792 -0.521 81.99 -0.624 79.5 1.609 L 24.607 50.823 c -0.437 -0.613 -0.926 -1.19 -1.462 -1.727 c -2.561 -2.561 -5.965 -3.971 -9.586 -3.971 s -7.026 1.41 -9.586 3.971 C 1.41 51.657 0 55.062 0 58.684 c 0 3.621 1.41 7.025 3.971 9.586 c 2.561 2.561 5.965 3.971 9.586 3.971 c 1.885 0 3.707 -0.39 5.386 -1.117 c -1.994 4.724 -1.312 10.286 2.173 14.251 c 2.6 2.959 6.29 4.626 10.195 4.626 c 0.185 0 0.371 -0.004 0.557 -0.011 c 4.109 -0.167 7.89 -2.176 10.373 -5.511 c 3.536 -4.75 3.523 -11.376 -0.032 -16.113 c -0.868 -1.157 -1.885 -2.153 -3.033 -2.972 L 88.391 10.5 C 90.624 8.011 90.519 4.209 88.155 1.844 z M 21.73 66.855 c -2.183 2.183 -5.085 3.385 -8.172 3.385 s -5.989 -1.202 -8.172 -3.385 C 3.202 64.673 2 61.77 2 58.684 c 0 -3.087 1.202 -5.989 3.385 -8.173 c 4.507 -4.506 11.838 -4.506 16.345 0 c 0.675 0.675 1.263 1.428 1.749 2.237 c 0.029 0.066 0.065 0.131 0.109 0.191 c 0.299 0.415 0.869 0.533 1.314 0.279 c 0.086 -0.049 0.163 -0.11 0.23 -0.181 l 2.773 -2.486 c 0.944 5.435 -0.809 10.938 -4.864 14.994 l -1.055 1.056 c -0.086 0.086 -0.159 0.179 -0.242 0.266 L 21.73 66.855 z M 86.903 9.165 L 36.916 64.92 c -0.055 0.058 -0.103 0.123 -0.143 0.192 c -0.254 0.444 -0.132 1.008 0.283 1.307 c 0.074 0.054 0.153 0.096 0.235 0.126 c 1.281 0.775 2.397 1.791 3.319 3.02 c 3.026 4.033 3.038 9.675 0.027 13.719 c -2.121 2.849 -5.347 4.564 -8.85 4.706 c -3.505 0.148 -6.846 -1.293 -9.169 -3.937 c -4.002 -4.554 -3.659 -11.599 0.781 -16.038 l 1.055 -1.056 c 4.823 -4.822 6.725 -11.49 5.171 -17.951 l 51.21 -45.911 c 1.441 -1.293 3.531 -1.437 5.115 -0.464 L 37.544 51.042 c -0.391 0.391 -0.391 1.023 0 1.414 s 1.023 0.391 1.414 0 L 87.365 4.049 C 88.34 5.634 88.196 7.722 86.903 9.165 z" style="stroke: none; stroke-width: 1; stroke-dasharray: none; stroke-linecap: butt; stroke-linejoin: miter; stroke-miterlimit: 10; fill: rgb(0,0,0); fill-rule: nonzero; opacity: 1;" transform=" matrix(1 0 0 1 0 0) " stroke-linecap="round" />
	<path d="M 31.316 83.222 c -1.737 0 -3.474 -0.661 -4.796 -1.983 c -1.281 -1.281 -1.987 -2.984 -1.987 -4.797 c 0 -1.812 0.706 -3.516 1.987 -4.796 c 1.281 -1.281 2.984 -1.987 4.796 -1.987 c 1.812 0 3.515 0.706 4.796 1.987 l 0 0 l 0 0 c 1.281 1.28 1.987 2.984 1.987 4.796 c 0 1.812 -0.706 3.516 -1.987 4.797 C 34.791 82.561 33.054 83.222 31.316 83.222 z M 31.317 71.659 c -1.278 0 -2.479 0.498 -3.382 1.401 c -0.903 0.903 -1.401 2.104 -1.401 3.382 c 0 1.278 0.498 2.479 1.401 3.383 c 1.865 1.863 4.9 1.864 6.765 0 c 0.903 -0.903 1.401 -2.104 1.401 -3.383 c 0 -1.277 -0.498 -2.479 -1.401 -3.382 l 0 0 C 33.795 72.157 32.594 71.659 31.317 71.659 z" style="stroke: none; stroke-width: 1; stroke-dasharray: none; stroke-linecap: butt; stroke-linejoin: miter; stroke-miterlimit: 10; fill: rgb(0,0,0); fill-rule: nonzero; opacity: 1;" transform=" matrix(1 0 0 1 0 0) " stroke-linecap="round" />
</g>
</svg>